<svg height="200" viewBox="0 0 200 200" width="200" xmlns="http://www.w3.org/2000/svg" xmlns:xlink="http://www.w3.org/1999/xlink"><clipPath id="b"><path d="M-76.5-32.5h350v275h-350z"/></clipPath><clipPath id="c"><path d="M251.6 156.44a31.89 31.89 0 0 1-2.93 8.29c-3.44-10.83-10-21.65-18.51-28.1-.19-.14-.5-.35-.91-.61a33.75 33.75 0 0 0-49.07 15.83l-.73 1.76a44.42 44.42 0 0 1 10.55-5.69s-2.18 3-3.86 5.23c-5.17 6.92-8.56 16.4-5.94 25.12.82 2.73 2.9 5.38 5.52 7.79-13.29 2.16-22.72 15.79-22.72 15.79l-12.73 15 18.59 3.88 10.59.38a75.71 75.71 0 0 0 21.85 2.92c26.61 0 45.35-17.46 49.29-36.21.31-1.47.62-2.93 1-4.4 1.22-5.42 3.76-19 .01-26.98z"/></clipPath><linearGradient id="a" gradientUnits="userSpaceOnUse" x1="218.23" x2="218.23" y1="171.85" y2="117.86"><stop offset="0" stop-color="#fff" stop-opacity="0"/><stop offset=".72" stop-color="#fff"/></linearGradient><clipPath id="d"><path d="M251.6 156.09a31.8 31.8 0 0 1-2.92 8.27c-3.43-10.8-10-21.6-18.46-28-.19-.14-.5-.35-.91-.6a33.65 33.65 0 0 0-48.94 15.78c-.31.76-.73 1.76-.73 1.76a44.5 44.5 0 0 1 10.54-5.68s-2.17 3-3.84 5.22c-5.16 6.9-8.55 16.36-5.93 25.05.82 2.73 2.89 5.37 5.51 7.77-13.28 2.16-22.68 15.76-22.68 15.76l-12.7 15 18.54 3.87 10.56.38a75.43 75.43 0 0 0 21.8 2.91c26.54 0 45.22-17.4 49.15-36.11.31-1.46.62-2.93 1-4.39 1.22-5.49 3.75-19.03.01-26.99z"/></clipPath><linearGradient id="e" x1="218.32" x2="218.32" xlink:href="#a" y1="171.46" y2="117.61"/><clipPath id="f"><path d="M181 218.13c-4.73-3.23-14.56-6.78-19.78-8.3h-.09a27.32 27.32 0 0 0 .7-17.15L147 144.48a13.25 13.25 0 0 0 4.54-2.47c-1.78.84-4.3-.89-6-2.41l-.25-.79c6 2.94 11.5-5 11.5-5-5 .6-11.21-3.43-15-6.39l-.41-1.33c4 .75 8.13-2.71 8.13-2.71-2.38.08-5-2-7.23-4.5a32.69 32.69 0 0 1-6.88-12.27l-6-19.6a26.49 26.49 0 0 0-5.19-9.82l7.09-11.46a1.65 1.65 0 0 0-1.33-2.52c-4.4-.22-11.54 5.18-14.23 7.29a26.51 26.51 0 0 0-6.36-2.22 39.56 39.56 0 0 1 2.35-4.28 1.12 1.12 0 0 0-1.24-1.69 23.73 23.73 0 0 0-7.11 3.84.13.13 0 0 1-.21-.14c.45-1.83 2.32-9.78.83-10.51s-4 5.8-4.92 8.22a.13.13 0 0 1-.25 0C99 61 99.36 53.64 97.39 54c-2.16.41-6.18 9.66-6.94 11.46a.14.14 0 0 1-.25 0c-.51-1.28-2.52-6.13-3.2-4.46s.07 4.77.37 6a.14.14 0 0 1-.22.14C85 65.27 81.47 65.22 79 65.47a1.12 1.12 0 0 0-.69 1.91 12.81 12.81 0 0 1 1.07 1.25 26.69 26.69 0 0 0-7.23 3.21l-.57-.38c-4.58-3.76-11.65-8.54-14.4-4.69a1.65 1.65 0 0 0-.09 1.76l6.66 11.9a26.34 26.34 0 0 0-3.63 10.32l-3.36 17.64a29.89 29.89 0 0 1-5.43 12.41c-2 2.61-4.27 4.79-6.62 5 0 0 4.57 2.88 8.44 1.59l-.27 1.4c-3.37 3.44-9 8.25-14 8.32 0 0 6.23 6.86 11.72 3.66l-.2 1.06c-1.49 1.62-3.53 3.28-5.24 2.73a13.23 13.23 0 0 0 4.38 1.76L40 196.55a27.32 27.32 0 0 0 1.39 12.94h-.07c-4.19 1-14.36 4.78-20.3 8.62-2.92 1.89-1.12 6.15 2.55 6.08l29.37-.57q.75.47 1.53.87v.37c0 2.56-.74 4.66-3.3 4.79a3.47 3.47 0 0 0-3.36 2.35c-.52 2.36.64 4.27 3 4.44l9.27.56a7.72 7.72 0 0 0 8.16-6.39l.55-2.93h58.72l.38 2.28a7.84 7.84 0 0 0 4.75 6 5.85 5.85 0 0 0 2.45.44l10.1-.33c2.43-.25 3.32-1.73 3.07-4.07a3 3 0 0 0-2.69-2.81 3 3 0 0 1-3.09-2.41 27.18 27.18 0 0 0 7.18-3.08l28.78.55c3.67.03 5.42-4.16 2.56-6.12z"/></clipPath><clipPath id="g"><path d="M181 218.13c-4.73-3.23-14.56-6.78-19.78-8.3h-.09a27.32 27.32 0 0 0 .7-17.15L147 144.48a13.25 13.25 0 0 0 4.54-2.47c-1.78.84-4.3-.89-6-2.41l-.25-.79c6 2.94 11.5-5 11.5-5-5 .6-11.21-3.43-15-6.39l-.41-1.33c4 .75 8.13-2.71 8.13-2.71-4.75.15-10.32-8.15-12.66-12L129.34 87a26.49 26.49 0 0 0-5.19-9.82l8.07-13c-3.57-3.51-13.3 3.81-16.54 6.36a26.51 26.51 0 0 0-6.36-2.22 41.19 41.19 0 0 1 2.4-4.22 1.12 1.12 0 0 0-1.22-1.7 23.81 23.81 0 0 0-7.12 3.84.13.13 0 0 1-.21-.14c.45-1.84 2.32-9.78.83-10.51s-4 5.79-4.91 8.22a.13.13 0 0 1-.26-.06c.18-2.68.53-10-1.44-9.68-2.16.41-6.17 9.65-6.94 11.46a.13.13 0 0 1-.25 0c-.51-1.36-2.52-6.2-3.2-4.53s.07 4.77.37 6a.14.14 0 0 1-.22.14C85 65.27 81.47 65.22 79 65.47a1.12 1.12 0 0 0-.69 1.91 12.81 12.81 0 0 1 1.07 1.25 26.69 26.69 0 0 0-7.23 3.21l-.57-.38c-4.9-4-12.7-9.24-14.93-3.7l7.1 12.67a26.34 26.34 0 0 0-3.63 10.32l-4.27 22.46c-1.9 3.9-6.44 12.14-11.14 12.62 0 0 4.57 2.88 8.44 1.59l-.27 1.4c-3.37 3.44-9 8.25-14 8.32 0 0 6.23 6.86 11.72 3.66l-.2 1.06c-1.49 1.62-3.53 3.28-5.24 2.73a13.23 13.23 0 0 0 4.38 1.76L40 196.55a27.32 27.32 0 0 0 1.39 12.94h-.07c-4.19 1-14.36 4.78-20.3 8.62-2.92 1.89-1.12 6.15 2.55 6.08l29.37-.57q.75.47 1.53.87v.37c0 2.56-.74 4.66-3.3 4.79a3.47 3.47 0 0 0-3.36 2.35c-.52 2.36.64 4.27 3 4.44l9.27.56a7.72 7.72 0 0 0 8.16-6.39l.55-2.93h58.72l.38 2.28a7.84 7.84 0 0 0 4.75 6 5.85 5.85 0 0 0 2.45.44l10.1-.33c2.43-.25 3.32-1.73 3.07-4.07a3 3 0 0 0-2.69-2.81 3 3 0 0 1-3.09-2.41 27.18 27.18 0 0 0 7.18-3.08l28.78.55c3.67.03 5.42-4.16 2.56-6.12z"/></clipPath><clipPath id="h"><path d="M125.72 84.11c-5.43 1.33-12.65 6.41-14.68 23.62 0 0 12.68 10.32 23.21-2.82 5.6-7 4.65-12.44 2.54-16a10.07 10.07 0 0 0-11.07-4.8z"/></clipPath><clipPath id="i"><path d="M67.91 86c5.44 1.32 12.66 6.41 14.68 23.61 0 0-12.68 10.32-23.21-2.82-5.59-7-4.65-12.44-2.54-16A10.05 10.05 0 0 1 67.91 86z"/></clipPath><path d="M-76.5-32.5h350v275h-350z" fill="#fdffdc"/><g clip-path="url(#b)"><g clip-path="url(#c)"><path d="M251.5 223.49H148.45v-97.54h108.73z" fill="#b9ff83"/><path d="M160.14 204.94s12.38-17.12 15.09-16c-11.07 12.88-2.87 20.39 2.53 22 21.9 6.48 58.26 12.18 73.08-18.07l-24 32.86-71.28-.33z" fill="#7f7f7f" opacity=".2"/><path d="M185.11 184.53a20.91 20.91 0 0 0-2.74.67c.39.41 3.91 11.4 15.26 13.05a.75.75 0 0 0 .81-1 9.49 9.49 0 0 1-.63-2.65" fill="#7f7f7f" opacity=".2"/><path d="M187.79 141.63s16.63-16.07 41.49.82c10.2 7.34 15.8 29.4 15.8 29.4l3.59-7.12-6.55-41.44-25.61-5.43-16.51 2.21z" fill="url(#a)" opacity=".5"/></g><g clip-path="url(#d)"><path d="M251.32 225.3l-102.6-2.33 29.07-100.27 81.27 6.56z" fill="none"/><path d="M171 199.61c5.57 3 12 9.18 13 15.41 0 0 .34 1.51.35 1.56a13.07 13.07 0 0 0 4.6 7.76l-38.94.81 3.63-34.15zm45.7-18.06a.68.68 0 0 1-.69-.05.7.7 0 0 1-.29-.63l.27-3.05a16.84 16.84 0 0 1-4.81 3.67c-.35.2-.71.39-1.07.58-2.23 1.19-4.53 2.43-6 4.41s-2.88 6-2 7.86a1.17 1.17 0 0 1-.23 1.31 1.21 1.21 0 0 1-.86.35 1.23 1.23 0 0 1-.55-.13 72.27 72.27 0 0 1-11.83-7.06c-.29-.22-.57-.43-.84-.65a8 8 0 0 0 1.07 8.27c5.92 8.32 12.27-1.9 18.83-.84s14.45-1.52 16-5.78c.83-2.32.14-7.66-2.29-11.41a22.59 22.59 0 0 1-4.71 3.15z" fill="#f6ff9f"/><path d="M160.38 204.46s12.35-17.07 15.05-16c-11 12.85-2.86 20.33 2.52 21.93 21.85 6.46 58.11 12.15 72.9-18l-24 32.77-71.09-.33z" fill="#7f7f7f" opacity=".2"/><path d="M185.29 184.11a20.91 20.91 0 0 0-2.74.67c.39.4 3.9 11.37 15.23 13a.76.76 0 0 0 .8-1.05 9.4 9.4 0 0 1-.63-2.64" fill="#7f7f7f" opacity=".2"/><path d="M176.14 156.85c5-6.22 15.32-7.63 20.2-3 4.52 4.34-2.65 8.75 2.13 14.12s-2.21 9.08-8.37 11.5a12.71 12.71 0 0 1-11.66-1.32c-6.17-4.29-7.5-14.85-2.3-21.3z" fill="#f6ff9f"/><path d="M188 141.31s16.59-16 41.39.83c10.18 7.32 15.76 29.32 15.76 29.32l3.58-7.1-6.59-41.36-25.54-5.41-16.49 2.21z" fill="url(#e)" opacity=".5"/></g><path d="M248.68 164.74c-3.44-10.83-10-21.66-18.51-28.11-.2-.14-.51-.35-.92-.61a33.74 33.74 0 0 0-49.06 15.83l-.73 1.76a44.25 44.25 0 0 1 10.54-5.69s-2.18 3-3.85 5.23c-5.17 6.92-8.57 16.4-5.95 25.12 2.27 7.54 14.13 14.44 20.45 17.43a.5.5 0 0 0 .72-.63c-1.06-2.34.7-6.61 2.09-8.56 1.75-2.45 4.63-3.76 7.27-5.21s5.33-3.38 6.11-6.29l-.55 6.34a22.52 22.52 0 0 0 9.8-9.54 21.66 21.66 0 0 0 2.07-5.56" fill="none" stroke="#31323d" stroke-linecap="round" stroke-linejoin="round" stroke-width="1.372"/><path d="M163 201.85s9.43-13.63 22.74-15.79" fill="none" stroke="#31323d" stroke-linecap="round" stroke-miterlimit="10" stroke-width="1.372"/><path d="M179.46 221.13a75.71 75.71 0 0 0 21.85 2.92c26.61 0 45.34-17.46 49.28-36.21.31-1.47.62-2.93 1-4.4 1.26-5.45 3.8-19 0-27 0 0-.52 3.88-4.16 10.73" fill="none" stroke="#31323d" stroke-linecap="round" stroke-linejoin="round" stroke-width="1.372"/><g clip-path="url(#f)"><path d="M19.3 39.13h164.27v200.31H19.3z" fill="#b9ff83"/><g fill="#f6ff9f"><path d="M70.91 219.48c1.16-.95.19-4.79 1.09-7.88.36-1.21-1.61-2-2.46-2.91a14 14 0 0 1-3.41-5.14c-1.6-5.23 2.77-10.44 2.91-15.91a10.13 10.13 0 0 0-6.71-9.72 9.13 9.13 0 0 0-10.68 4.48 8.74 8.74 0 0 0 1.4 9.31.55.55 0 0 0 .91-.57 7.91 7.91 0 0 1-.39-4.43 6.19 6.19 0 0 1 4.52-4.8 4.87 4.87 0 0 1 5.54 3.09c.66 2.17-.44 4.47-1.77 6.3s-3 3.54-3.54 5.73c-.65 2.45.12 5 .6 7.51s.55 5.37-1.16 7.24c-.68.75-1.6 1.26-2.21 2.08-2.18 3 1.05 7.53-.7 10.78-1.28 2.4-4.72 2.93-6.05 5.31-1.13 2-.18 4.77 1.63 6.21A10.41 10.41 0 0 0 57 238a17.49 17.49 0 0 0 9.48-2.56c2.78-1.81 3.29-4.76 3.78-8.07"/><ellipse cx="59.43" cy="187.37" rx="2.58" ry="2.61"/><path d="M53.93 204.12c-.73-2.06-.12-4.13.7-6.06a.32.32 0 0 1 .62.07 19.38 19.38 0 0 0 1.28 3.58 10.94 10.94 0 0 1 .66 6.47.33.33 0 0 1-.62.06c-.63-1.38-2.1-2.63-2.64-4.12zm72.01 15.36c-1.16-.95-.19-4.79-1.09-7.88-.36-1.21 1.6-2 2.46-2.91a14 14 0 0 0 3.4-5.14c1.6-5.23-2.76-10.44-2.9-15.91a10.13 10.13 0 0 1 6.71-9.72 9.13 9.13 0 0 1 10.68 4.48 8.74 8.74 0 0 1-1.4 9.31.55.55 0 0 1-.91-.57 8 8 0 0 0 .39-4.43 6.2 6.2 0 0 0-4.52-4.8 4.87 4.87 0 0 0-5.54 3.08c-.67 2.17.44 4.47 1.77 6.3s3 3.54 3.54 5.73c.65 2.45-.12 5-.6 7.51s-.55 5.37 1.15 7.24a27.27 27.27 0 0 1 2.21 2.08c2.19 3-1 7.53.7 10.78.45.84-.53 2.86.27 3.4 1.48 1 4.92.36 5.79 1.91 1.12 2 .18 4.77-1.63 6.21a10.44 10.44 0 0 1-6.55 1.86 17.47 17.47 0 0 1-9.47-2.56c-2.79-1.81-3.29-4.76-3.78-8.07"/><ellipse cx="138.59" cy="187.41" rx="2.58" ry="2.61"/><path d="M142.92 204.12c.73-2.06.12-4.13-.7-6.06a.33.33 0 0 0-.63.07 18.75 18.75 0 0 1-1.27 3.58 10.86 10.86 0 0 0-.66 6.47.33.33 0 0 0 .62.06c.63-1.38 2.1-2.63 2.64-4.12zM80.1 69.68c-4.56 4.19-3.84 10.32 1.65 14S97 88.39 104 85.88c3.89-1.39 7-3.93 6.95-6.74-.11-3.68-6.09-6.64-12-6.49-3.38.08-6.8 1.09-8.57 2.89S89 80 91.48 81.35a9.21 9.21 0 0 0 6.1.62.53.53 0 0 0-.07-1 5.72 5.72 0 0 1-2.75-.84 2.06 2.06 0 0 1-.34-3.44 7 7 0 0 1 5.69-1 4.74 4.74 0 0 1 3.69 3c.67 2.75-3.37 5.39-7.8 5.61a14.92 14.92 0 0 1-11-3.91c-2.28-2.34-2.43-5.3.47-7.6 2.07-1.63 6-2.81 9.15-3.11"/><path d="M76.55 70.47l2.89-1.67 1.79 3.39a90.08 90.08 0 0 1 15.69-2.56c2.3-.14 4.51-.39 7.09-.46a22.6 22.6 0 0 1 12.49 2.93l-.5-5.73.86-14.57L102.53 40H89.9L80 41.69l-6.6 8.64-4.9 8.93 2.24 5.38z"/><path d="M114.24 70.17l6.28 4.54 5.37 5.78 5.37 8.42s13.35-20.86 13.13-21.81-7.11-10.54-7.11-10.54l-4.51-2.05zM73.5 71.71L56.42 59.3l-9.36 2.53-.44 5.84 10.39 27.88 3.52-8.27 3.07-6.24 2.71-3.26 4.16-3.87z"/></g><path d="M68.51 234.48c-.62-1.62.36-6.32 2.31-15.72 1.16-5.62 2.09-9.29 2.67-11.69 4.32-18 1.8-20 5.57-30.74 2.57-7.34 5.24-14.61 12.36-18 .85-.41 7.33-3.42 13.92-.78 6.42 2.58 9 9 11.72 15.81 3.25 8.25 2.23 11.1 5.91 31.76.77 4.3 1.52 8.6 2.3 12.9.45 2.52.89 5.05 1.33 7.57 1.05 5.93 1.08 6 1.05 6.26-1.08 8.71-54.19 15.62-59.14 2.63z" fill="#fff"/></g><g clip-path="url(#g)" fill="#7f7f7f" opacity=".2"><path d="M81.15 71.57c-9 2.6-14.68 12.74-17.8 26.36-.72 3.18-1.38 6.95-2 11.1-1.64 10.76-3.09 24.09-4.89 36.47-2.33 3.64-3.21 4.34-3.91 8.34-2.24 12.88-2.28 28.29-3.08 34.7a98.19 98.19 0 0 0-.75 10.84v.37c2.59 2.85 5.24 9.76 5.79 19.45l.14 5.39s-3.45-.08-8.91-.08c-6.82 0-12.2-12.3-8.71-30.61 3.13-16.46-7.48-100.76-7.48-100.76l31-4.87a26.57 26.57 0 0 1 18.83-19.64zM73.8 201c-2.67 16.26 6 19.62 7.55 20 9.51 1.7 24.63 1 29.54-.77 4.6-1.62 14.3-6.44 11.89-20.85l4.73 28.26H68.79zm69.09 12.91s3.29-10 7.3-13.74c-4.34 8.25 1.55 10.21 3.09 9.66 5.91-2.12 8.25-7.34 8.72-16.52l7.18 12.8s-6.05 28.17-22.45 23.55l-4.25-2z"/></g><path d="M147.2 144.83l14.67 47.73a27.48 27.48 0 0 1-19.29 34m-87.77-2.22a27.45 27.45 0 0 1-14.43-27.89l9.47-49.79" fill="none" stroke="#31323d" stroke-linecap="round" stroke-miterlimit="10" stroke-width="1.372"/><path d="M74.34 201c-.79 6.69-2.06 13.28-3.27 19.88l-1.84 9.92a8.39 8.39 0 0 1-2.72 4.7 8.58 8.58 0 0 1-5 2.07 24.37 24.37 0 0 1-2.61-.07l-2.52-.14-5-.31a4.37 4.37 0 0 1-2.84-1.05 4.07 4.07 0 0 1-1.24-2.76 5.34 5.34 0 0 1 .11-1.45 3.11 3.11 0 0 1 .7-1.46 4.55 4.55 0 0 1 2.59-1.45 6.09 6.09 0 0 1 .73-.1 3.88 3.88 0 0 0 .53-.06 2.33 2.33 0 0 0 .89-.34 2.69 2.69 0 0 0 1-1.63 7.84 7.84 0 0 0 .19-2.3L54 221.9l-.4-10.06v.06a29.79 29.79 0 0 0-1.36-6.39 20.31 20.31 0 0 0-3.14-5.71.23.23 0 0 1 0-.34.24.24 0 0 1 .32 0 17.47 17.47 0 0 1 3.78 5.65 26.32 26.32 0 0 1 1.68 6.61v.05l.51 10.07.12 2.52a9.63 9.63 0 0 1-.22 2.7 4.13 4.13 0 0 1-1.64 2.5 3.76 3.76 0 0 1-1.43.58 6.6 6.6 0 0 1-.72.08 4.67 4.67 0 0 0-.52.08 3.14 3.14 0 0 0-1.73.95 1.69 1.69 0 0 0-.37.79 4.17 4.17 0 0 0-.08 1 2.53 2.53 0 0 0 .77 1.72 2.85 2.85 0 0 0 1.84.65l5 .28 2.51.16a22.85 22.85 0 0 0 2.42.09 7.1 7.1 0 0 0 4.14-1.67 7 7 0 0 0 2.26-3.85l1.89-9.87c1.27-6.6 2.48-13.21 4.18-19.72a.24.24 0 0 1 .3-.17.25.25 0 0 1 .23.34zm48.84-1.73c1.76 7.65 3 15.39 4.35 23.12l1 5.8.24 1.45a9.44 9.44 0 0 0 .35 1.29 7.17 7.17 0 0 0 1.37 2.26 6.27 6.27 0 0 0 4.57 2.2l5.85-.21 2.93-.09 1.46-.05a3.61 3.61 0 0 0 1.14-.29 2 2 0 0 0 1.16-1.72 5.23 5.23 0 0 0 0-1.25 3.05 3.05 0 0 0-.4-1.09 2 2 0 0 0-.75-.75 1.6 1.6 0 0 0-.49-.18 5.16 5.16 0 0 0-.65-.08 4.57 4.57 0 0 1-1.68-.5 3.5 3.5 0 0 1-1.32-1.3 5.93 5.93 0 0 1-.52-3.24l.06-2.95.06-2.94a30.07 30.07 0 0 1 .3-3 28.23 28.23 0 0 1 1.56-5.8 27.8 27.8 0 0 1 2.68-5.34 29.77 29.77 0 0 1 3.65-4.69.25.25 0 0 1 .35 0 .26.26 0 0 1 0 .33 37.67 37.67 0 0 0-5.45 10.13 32.39 32.39 0 0 0-1.38 5.57 27.24 27.24 0 0 0-.26 2.84l-.05 2.94v3.67a4.43 4.43 0 0 0 0 .64 2.94 2.94 0 0 0 .33 1.11 2.3 2.3 0 0 0 1.89 1.06 6.24 6.24 0 0 1 .8.09 3.65 3.65 0 0 1 .89.32 3.49 3.49 0 0 1 1.33 1.28 4.61 4.61 0 0 1 .61 1.66 7.17 7.17 0 0 1 0 1.67 4.09 4.09 0 0 1-.6 1.7 3.32 3.32 0 0 1-1.42 1.21 5 5 0 0 1-1.68.45l-1.48.06-3 .11-5.91.18a6.8 6.8 0 0 1-3.18-.78 8.64 8.64 0 0 1-4.18-4.72 10.41 10.41 0 0 1-.41-1.55l-.23-1.46-.95-5.8c-1.27-7.74-2.59-15.47-3.42-23.28a.23.23 0 0 1 .21-.27.25.25 0 0 1 .27.19z" fill="#31323d"/><path d="M71.88 71.7C67.32 68 60.26 63.19 57.52 67a1.65 1.65 0 0 0-.1 1.76l6.65 11.87m51.79-9.9c2.68-2.11 9.81-7.49 14.19-7.28a1.65 1.65 0 0 1 1.32 2.55l-7.06 11.4" fill="none" stroke="#31323d" stroke-linecap="round" stroke-miterlimit="10" stroke-width="1.317"/><path d="M56.65 145.45a8.62 8.62 0 0 1-2.72 1.29 9 9 0 0 1-3 .3 12.66 12.66 0 0 1-3-.57 13.34 13.34 0 0 1-2.81-1.23.73.73 0 0 1-.23-1 .74.74 0 0 1 .84-.3 2.37 2.37 0 0 0 1.76-.31 8.39 8.39 0 0 0 1.77-1.27 20.69 20.69 0 0 0 3-3.49l1.15.88a8.36 8.36 0 0 1-3.55 2.35 7.71 7.71 0 0 1-4.26 0 12.51 12.51 0 0 1-3.72-1.77 18.59 18.59 0 0 1-3.12-2.63.71.71 0 0 1 .49-1.2 11.67 11.67 0 0 0 4.75-1.35 23.93 23.93 0 0 0 4.32-2.79 42.26 42.26 0 0 0 3.89-3.45 48.82 48.82 0 0 0 3.51-3.84.71.71 0 0 1 1.1.9 7 7 0 0 1-2.68 2.03 7.77 7.77 0 0 1-3.32.52 11.69 11.69 0 0 1-3.18-.66 14.61 14.61 0 0 1-2.93-1.35.7.7 0 0 1-.24-1 .68.68 0 0 1 .52-.33 6.28 6.28 0 0 0 3.38-1.89 20.55 20.55 0 0 0 2.68-3.3 38.45 38.45 0 0 0 4-7.68 44.15 44.15 0 0 0 2.21-8.31l1.65-8.65.82-4.35.38-2.2c.19-.73.34-1.47.56-2.19a27.71 27.71 0 0 1 4-8.07 27.35 27.35 0 0 1 14.46-10.23.69.69 0 0 1 .39 1.32A25.86 25.86 0 0 0 62 87c-.2.69-.35 1.39-.53 2.08l-.37 2.14-.82 4.34-1.64 8.66a45.75 45.75 0 0 1-2.31 8.62 40.23 40.23 0 0 1-4.08 8 21.32 21.32 0 0 1-2.88 3.52 7.49 7.49 0 0 1-4.2 2.28l.3-1.3a14.64 14.64 0 0 0 2.63 1.21 10.66 10.66 0 0 0 2.81.58 6.6 6.6 0 0 0 2.7-.42 5.68 5.68 0 0 0 2.12-1.63l1.11.89a50.43 50.43 0 0 1-3.62 4 43.87 43.87 0 0 1-4 3.57 25.55 25.55 0 0 1-4.56 2.94 13.21 13.21 0 0 1-5.36 1.5l.52-1.2a17.43 17.43 0 0 0 2.86 2.39A11 11 0 0 0 46 140.7a6.36 6.36 0 0 0 3.46 0 7 7 0 0 0 2.89-1.94.72.72 0 0 1 1.1.93 22.5 22.5 0 0 1-3.2 3.76 9.83 9.83 0 0 1-2.1 1.5 3.73 3.73 0 0 1-2.84.39l.62-1.29a13.48 13.48 0 0 0 2.41 1.28A11.85 11.85 0 0 0 51 146a8.19 8.19 0 0 0 2.75 0 7.91 7.91 0 0 0 2.58-1 .28.28 0 0 1 .37.11.27.27 0 0 1-.05.34zM110.23 68a28.1 28.1 0 0 1 8.4 3.56 27.19 27.19 0 0 1 6.75 6.13 26.91 26.91 0 0 1 4.34 8c.92 2.9 1.73 5.72 2.6 8.59l2.56 8.55a43.73 43.73 0 0 0 3.07 8.24 36.27 36.27 0 0 0 4.85 7.27 19.79 19.79 0 0 0 3.11 3 6.2 6.2 0 0 0 3.63 1.44.72.72 0 0 1 .46 1.22 14.91 14.91 0 0 1-2.72 1.74 11.61 11.61 0 0 1-3.08 1.08 7.94 7.94 0 0 1-3.36-.07 7.29 7.29 0 0 1-3-1.69.73.73 0 1 1 1-1.09 51.47 51.47 0 0 0 4 3.34 41.75 41.75 0 0 0 4.32 2.9 23.66 23.66 0 0 0 4.64 2.19 11.68 11.68 0 0 0 4.89.7.7.7 0 0 1 .77.62.66.66 0 0 1-.13.48 18.78 18.78 0 0 1-2.74 3 12.76 12.76 0 0 1-3.45 2.25 7.8 7.8 0 0 1-4.2.58 8.39 8.39 0 0 1-3.81-1.85l1-1a22.2 22.2 0 0 0 3.41 3.09 8.51 8.51 0 0 0 1.93 1.06 2.47 2.47 0 0 0 1.86.08.61.61 0 0 1 .81.3.6.6 0 0 1-.17.72 13.53 13.53 0 0 1-5.42 2.64 9.08 9.08 0 0 1-3 .13 8.41 8.41 0 0 1-2.87-.93.27.27 0 0 1-.12-.37.27.27 0 0 1 .33-.13 8.5 8.5 0 0 0 2.7.63 9 9 0 0 0 2.73-.29 11.48 11.48 0 0 0 2.57-1.05 14.18 14.18 0 0 0 2.27-1.55l.67 1a3.62 3.62 0 0 1-2.8 0 9.74 9.74 0 0 1-2.27-1.17 21.66 21.66 0 0 1-3.69-3.27.69.69 0 0 1 .05-1 .71.71 0 0 1 .87-.05h.05a6.89 6.89 0 0 0 3.14 1.53 6.38 6.38 0 0 0 3.43-.49 11.19 11.19 0 0 0 3.07-2 17.76 17.76 0 0 0 2.51-2.77l.67 1.1a13.06 13.06 0 0 1-5.51-.75 25.38 25.38 0 0 1-4.92-2.3 43.35 43.35 0 0 1-4.46-3 51.55 51.55 0 0 1-4.13-3.44l1-1a5.74 5.74 0 0 0 2.32 1.32 6.34 6.34 0 0 0 2.71.05 10.73 10.73 0 0 0 2.7-1 13.85 13.85 0 0 0 2.44-1.55l.5 1.3a7.65 7.65 0 0 1-4.55-1.74 21.5 21.5 0 0 1-3.33-3.2 37.18 37.18 0 0 1-5-7.57 44.67 44.67 0 0 1-3.15-8.48L131 94.65c-.85-2.84-1.67-5.75-2.56-8.53a25.14 25.14 0 0 0-4.12-7.62 26 26 0 0 0-6.41-5.83 26.58 26.58 0 0 0-8-3.37.69.69 0 0 1 .33-1.34z" fill="#31323d"/><path d="M81.17 71.93c-.54-.8-1.08-1.58-1.67-2.31-.28-.36-.59-.71-.9-1-.16-.17-.32-.33-.49-.49a1.75 1.75 0 0 1-.51-1 1.81 1.81 0 0 1 1.05-1.9 1.92 1.92 0 0 1 .56-.14h1.12a16.89 16.89 0 0 1 3 .09 10.18 10.18 0 0 1 3 .83 6.31 6.31 0 0 1 1.37.86l.12.1a.59.59 0 0 0-.72 0 .65.65 0 0 0-.2.34v.22-.18l-.16-.73a19.27 19.27 0 0 1-.43-3 7.8 7.8 0 0 1 .06-1.59 4.19 4.19 0 0 1 .22-.86 1.47 1.47 0 0 1 .38-.58 1 1 0 0 1 .53-.26 1.16 1.16 0 0 1 .55.06 2.16 2.16 0 0 1 .86.7 8.06 8.06 0 0 1 .46.67 13.51 13.51 0 0 1 .69 1.24c.22.44.42.89.62 1.34L91 65l.14.34v.09a.58.58 0 0 0-.24-.29.62.62 0 0 0-.77.09.88.88 0 0 0-.12.17v-.08l.07-.17.14-.33.29-.67.6-1.34q.61-1.32 1.26-2.64a32.34 32.34 0 0 1 3.06-5.1 5.92 5.92 0 0 1 1.21-1.18 1.6 1.6 0 0 1 .49-.25l.27-.1a2.22 2.22 0 0 1 .37 0 1.58 1.58 0 0 1 1.2.68 4.32 4.32 0 0 1 .65 1.66 13.92 13.92 0 0 1 .22 1.52 43.14 43.14 0 0 1 0 5.91l-.05.74a.62.62 0 0 0-.1-.38.61.61 0 0 0-.33-.27.65.65 0 0 0-.76.28v-.09l.07-.17.54-1.36c.38-.9.77-1.8 1.19-2.69a25.24 25.24 0 0 1 1.44-2.63 5.82 5.82 0 0 1 1.16-1.28 1.62 1.62 0 0 1 1.2-.46 1.49 1.49 0 0 1 1.06 1 5 5 0 0 1 .25 1.7 15.16 15.16 0 0 1-.08 1.52c-.09 1-.25 2-.42 2.93s-.37 1.92-.59 2.87l-.34 1.43a.86.86 0 0 0 0-.23.59.59 0 0 0-.2-.33.59.59 0 0 0-.72 0l.3-.23.6-.43a25.16 25.16 0 0 1 5.22-2.87l.72-.25a4.43 4.43 0 0 1 .87-.21 1.81 1.81 0 0 1 1.8 1.22 1.78 1.78 0 0 1 0 1.14 2.14 2.14 0 0 1-.24.48l-.2.3-.78 1.2a35 35 0 0 0-2.74 5 .28.28 0 0 1-.36.15.28.28 0 0 1-.16-.31 21.18 21.18 0 0 1 2.2-5.47l.74-1.27.19-.31c.06-.11.07-.11.08-.17a.39.39 0 0 0 0-.28.44.44 0 0 0-.43-.29 4.84 4.84 0 0 0-.54.14l-.65.23a23.84 23.84 0 0 0-4.89 2.74l-.57.42-.32.18a.84.84 0 0 1-1 0 .88.88 0 0 1-.29-.49.77.77 0 0 1 0-.4l.29-1.41c.21-.94.4-1.88.56-2.81s.31-1.88.39-2.81a13 13 0 0 0 .05-1.38 3.37 3.37 0 0 0-.15-1.15c0-.14-.09-.08.08 0s.06 0-.06.1a4.86 4.86 0 0 0-.76 1 20.69 20.69 0 0 0-1.29 2.35c-.41.85-.78 1.73-1.14 2.62l-.53 1.38-.06.17v.08c0 .06 0 0-.09.21a.91.91 0 0 1-1.55 0 .88.88 0 0 1-.13-.55v-.72a41.25 41.25 0 0 0 0-5.67 13.46 13.46 0 0 0-.2-1.34 3 3 0 0 0-.36-1c-.08-.1-.06-.05 0-.05a.13.13 0 0 1-.06 0s-.07 0-.15.08a4.77 4.77 0 0 0-.85.84 30.69 30.69 0 0 0-2.91 4.82c-.43.85-.85 1.71-1.25 2.58l-.6 1.31-.29.65-.14.33-.07.17v.15a.84.84 0 0 1-.16.24.9.9 0 0 1-1.1.14.92.92 0 0 1-.36-.44v-.08l-.14-.33-.27-.65c-.19-.44-.38-.87-.58-1.29s-.42-.84-.66-1.22a5.23 5.23 0 0 0-.35-.52 1.59 1.59 0 0 0-.23-.24.53.53 0 0 0 .41-.08c.07-.07 0 0 0 0a2.66 2.66 0 0 0-.14.54 6.94 6.94 0 0 0 0 1.3 17.6 17.6 0 0 0 .38 2.76l.15.68v.17a.8.8 0 0 1 0 .41.87.87 0 0 1-.39.55.86.86 0 0 1-1 0l-.16-.13a5.16 5.16 0 0 0-1.07-.69 9 9 0 0 0-2.57-.71 15.9 15.9 0 0 0-2.77-.1h-1.19a.48.48 0 0 0-.27.46.5.5 0 0 0 .12.27c.16.18.34.38.5.58a11.42 11.42 0 0 1 .83 1.32 13.84 13.84 0 0 1 1.25 2.71.28.28 0 0 1-.18.35.28.28 0 0 1-.32-.13z" fill="#31323d"/><path d="M125.72 84.11c-5.43 1.33-12.65 6.41-14.68 23.62 0 0 12.68 10.32 23.21-2.82 5.6-7 4.65-12.44 2.54-16a10.07 10.07 0 0 0-11.07-4.8z" fill="#fff"/><g clip-path="url(#h)"><circle cx="121.59" cy="102.05" fill="#ffa127" r="9.69"/><circle cx="121.28" cy="102.2" fill="#31323d" r="7.36"/><circle cx="125.8" cy="95.89" fill="#fff" r="4.28"/></g><path d="M125.72 84.11c-5.43 1.33-12.65 6.41-14.68 23.62 0 0 12.68 10.32 23.21-2.82 5.6-7 4.65-12.44 2.54-16a10.07 10.07 0 0 0-11.07-4.8z" fill="none" stroke="#31323d" stroke-linecap="round" stroke-miterlimit="10" stroke-width="1.098"/><path d="M138.12 98.21s4.94-8.11 4.88-12.31c0 0-2.46 1.71-4.24 1.31l1.09-2.47-5.88.47a11.25 11.25 0 0 1 4.15 13z" fill="#31323d"/><path d="M67.91 86c5.44 1.32 12.66 6.41 14.68 23.61 0 0-12.68 10.32-23.21-2.82-5.59-7-4.65-12.44-2.54-16A10.05 10.05 0 0 1 67.91 86z" fill="#fff"/><g clip-path="url(#i)"><circle cx="72.04" cy="103.92" fill="#ffa127" r="9.69"/><circle cx="71.73" cy="104.07" fill="#31323d" r="7.36"/><circle cx="76.25" cy="97.76" fill="#fff" r="4.28"/></g><path d="M67.91 86c5.44 1.32 12.66 6.41 14.68 23.61 0 0-12.68 10.32-23.21-2.82-5.59-7-4.65-12.44-2.54-16A10.05 10.05 0 0 1 67.91 86z" fill="none" stroke="#31323d" stroke-linecap="round" stroke-miterlimit="10" stroke-width="1.098"/><path d="M55.52 100.07s-5-8.1-4.89-12.3c0 0 2.46 1.7 4.23 1.3l-1.08-2.46 5.88.46a11.24 11.24 0 0 0-4.14 13zm42.86 13.72a35.81 35.81 0 0 0 4.79 5.88 21.39 21.39 0 0 0 6.11 4.39 11.63 11.63 0 0 0 3.59 1 9.37 9.37 0 0 0 3.68-.41 10.72 10.72 0 0 0 3.32-1.76 17.79 17.79 0 0 0 2.77-2.65.19.19 0 0 1 .29.25 18.65 18.65 0 0 1-2.73 2.82 11 11 0 0 1-3.43 2 10.11 10.11 0 0 1-4 .61 12.53 12.53 0 0 1-3.92-.92 22.65 22.65 0 0 1-6.64-4.35 38.23 38.23 0 0 1-5.25-6 .82.82 0 0 1 .19-1.15.83.83 0 0 1 1.15.19z" fill="#31323d"/><path d="M75.17 123a14.26 14.26 0 0 0 6.68 3 9.67 9.67 0 0 0 6.86-1.48 16.9 16.9 0 0 0 4.92-5.24A31.35 31.35 0 0 0 95.4 116c.25-.56.52-1.11.75-1.68s.33-1.2 1-1.61a.66.66 0 0 1 .9.2.67.67 0 0 1 .1.23c.14.74-.29 1.26-.51 1.85s-.57 1.15-.85 1.72a33.46 33.46 0 0 1-2 3.31c-.36.54-.77 1-1.15 1.56s-.82 1-1.3 1.45a13.68 13.68 0 0 1-3.08 2.41 10.67 10.67 0 0 1-7.58 1.27 14.84 14.84 0 0 1-6.68-3.53.13.13 0 0 1 0-.19.12.12 0 0 1 .17 0z" fill="#31323d"/><path d="M90.11 111.08a1.65 1.65 0 0 1 .39-1.74c1-1 3.09-2.38 7-2.41s5.76 1.32 6.65 2.29a1.62 1.62 0 0 1 .27 1.76 2.25 2.25 0 0 1-2 1.35 4.41 4.41 0 0 0-3.59 1.75 1.16 1.16 0 0 1-.2.24 2 2 0 0 1-2.78-.15s-.8-1.37-3.75-1.6a2.26 2.26 0 0 1-1.94-1.48zM106 131.51a6.81 6.81 0 0 1-1 2.11 7.56 7.56 0 0 1-1.78 1.6 8.5 8.5 0 0 1-2.22.93 8.89 8.89 0 0 1-7-1.15 8.06 8.06 0 0 1-3-3.46.29.29 0 0 1 .14-.37.29.29 0 0 1 .33.08 9.85 9.85 0 0 0 7.13 3.53 8.5 8.5 0 0 0 3.85-.79 7.57 7.57 0 0 0 3-2.67.27.27 0 0 1 .5.21z" fill="#31323d"/><path d="M91.37 131.6s.27 8 7 7.83c6.46-.14 7.32-7.58 7.32-7.58a8.61 8.61 0 0 1-6.57 3.26c-4.22-.02-7.75-3.51-7.75-3.51z" fill="#595959" opacity=".2"/><path d="M107.71 116.06a59.37 59.37 0 0 1 9.94-1.15 49.58 49.58 0 0 1 10 .61 33.23 33.23 0 0 1 9.49 3 23.14 23.14 0 0 1 7.71 6.17 23 23 0 0 0-7.83-5.92 32.8 32.8 0 0 0-9.45-2.71 49.16 49.16 0 0 0-9.85-.33 58.8 58.8 0 0 0-9.73 1.4.56.56 0 0 1-.66-.42.54.54 0 0 1 .41-.65zm18.98-5.41a56 56 0 0 0-16.58 3 .55.55 0 0 1-.7-.34.56.56 0 0 1 .34-.7 56.86 56.86 0 0 1 16.94-1.96zm-17.48 7.96a13.92 13.92 0 0 1 5.15.09 17.71 17.71 0 0 1 4.71 1.88 25.29 25.29 0 0 1 4 3 26.71 26.71 0 0 1 3.36 3.69 27.14 27.14 0 0 0-3.54-3.49 24.44 24.44 0 0 0-4.11-2.73 16.56 16.56 0 0 0-4.6-1.56 13.07 13.07 0 0 0-4.75.17.55.55 0 0 1-.65-.43.56.56 0 0 1 .42-.65zm-20.91.21c-3.29-.65-6.55-1.29-9.86-1.67a54.5 54.5 0 0 0-10-.34 29.92 29.92 0 0 0-9.7 2.13 19.19 19.19 0 0 0-7.86 6 19.27 19.27 0 0 1 7.75-6.26 30.23 30.23 0 0 1 9.77-2.43 55.74 55.74 0 0 1 10.09.07c3.35.29 6.69.85 10 1.41a.55.55 0 1 1-.18 1.08zm-19.18-6.45a29.68 29.68 0 0 1 17.24 2.08.55.55 0 1 1-.44 1 29.12 29.12 0 0 0-16.8-3.08zm17.76 9.05a10.82 10.82 0 0 0-4.74-.14 15.5 15.5 0 0 0-4.51 1.85 22.54 22.54 0 0 0-3.95 3 28.76 28.76 0 0 0-3.38 3.68 29.5 29.5 0 0 1 3.19-3.88 23.2 23.2 0 0 1 3.85-3.27 16 16 0 0 1 4.66-2.18 11.74 11.74 0 0 1 5.21-.12.56.56 0 0 1 .43.65.55.55 0 0 1-.65.43h-.06z" fill="#31323d"/></g></svg>